# xmcd
#
# Track frame offsets:
#	150
#	15297
#	30082
#	45367
#	58887
#	71932
#	88077
#	101482
#	114142
#	130955
#	143297
#	156785
#	174427
#	186652
#
# Disc length: 2671 seconds
#
# Revision: 1
# Processed by: cddbd v1.5.2PL0 Copyright (c) Steve Scherf et al.
# Submitted via: VUPlayer 2.49
#
DISCID=ad0a6d0e
DTITLE=Henk Wijngaard - Kijk uit, hier ben ik!
DYEAR=1991
DGENRE=Nederlandstalig
TTITLE0=Kijk uit hier ben ik
TTITLE1=Elke dag hetzelfde liedje
TTITLE2=Ik moet nog wat jaren mee
TTITLE3=De kleine dingen in 't leven
TTITLE4=Vianen
TTITLE5=De witte fiets
TTITLE6=Inpakken en wegwezen
TTITLE7=Mister Ford
TTITLE8=Het was me wel 'n feessie
TTITLE9=B'dai dai die
TTITLE10=Ik ben veel liever alleen
TTITLE11=Sneeuwjacht
TTITLE12=Als een wals
TTITLE13=Vaya Con Dios
EXTD=
EXTT0=
EXTT1=
EXTT2=
EXTT3=
EXTT4=
EXTT5=
EXTT6=
EXTT7=
EXTT8=
EXTT9=
EXTT10=
EXTT11=
EXTT12=
EXTT13=
PLAYORDER=
